name symmetric_stride_kinematics_Nominal.mot
datacolumns 38
datarows 5
range 1.56321129 1.56737985
endheader
                time	/jointset/ground_pelvis/pelvis_tilt/value	/jointset/ground_pelvis/pelvis_list/value	/jointset/ground_pelvis/pelvis_rotation/value	/jointset/ground_pelvis/pelvis_tx/value	/jointset/ground_pelvis/pelvis_ty/value	/jointset/ground_pelvis/pelvis_tz/value	/jointset/hip_r/hip_flexion_r/value	/jointset/hip_r/hip_adduction_r/value	/jointset/hip_r/hip_rotation_r/value	/jointset/knee_r/knee_angle_r/value	/jointset/ankle_r/ankle_angle_r/value	/jointset/subtalar_r/subtalar_angle_r/value	/jointset/mtp_r/mtp_angle_r/value	/jointset/hip_l/hip_flexion_l/value	/jointset/hip_l/hip_adduction_l/value	/jointset/hip_l/hip_rotation_l/value	/jointset/knee_l/knee_angle_l/value	/jointset/ankle_l/ankle_angle_l/value	/jointset/subtalar_l/subtalar_angle_l/value	/jointset/mtp_l/mtp_angle_l/value	/jointset/back/lumbar_extension/value	/jointset/back/lumbar_bending/value	/jointset/back/lumbar_rotation/value	/jointset/acromial_r/arm_flex_r/value	/jointset/acromial_r/arm_add_r/value	/jointset/acromial_r/arm_rot_r/value	/jointset/elbow_r/elbow_flex_r/value	/jointset/radioulnar_r/pro_sup_r/value	/jointset/radius_hand_r/wrist_flex_r/value	/jointset/radius_hand_r/wrist_dev_r/value	/jointset/acromial_l/arm_flex_l/value	/jointset/acromial_l/arm_add_l/value	/jointset/acromial_l/arm_rot_l/value	/jointset/elbow_l/elbow_flex_l/value	/jointset/radioulnar_l/pro_sup_l/value	/jointset/radius_hand_l/wrist_flex_l/value	/jointset/radius_hand_l/wrist_dev_l/value	
          1.56321129	         -9.68809839	         -5.91990267	         15.68296125	         18.53892264	          0.96405145	          0.30702380	         84.69948977	        -10.70792330	          2.82075322	        -95.65157337	        -12.76650419	        -23.79329393	         15.66549035	         -1.18670335	        -14.04857758	          8.67939375	        -54.43724666	        -30.34126234	        -14.25416697	         -7.94077022	         -9.79199254	          3.71614420	        -10.78922973	        -74.32870257	          0.94631211	         -0.00750429	         76.16404644	         53.17719042	         -9.88060345	          7.77525819	         88.71048553	          0.91050412	         -0.00002972	        106.11449743	         54.23806212	        -28.51077489	          7.80950926	
          1.56385763	         -9.69041944	         -5.92180145	         15.62850113	         18.54629761	          0.96431198	          0.30716428	         84.64574357	        -10.75696721	          2.73447677	        -94.85972445	        -13.04278674	        -23.85340919	         15.66567736	         -1.19163538	        -14.02958751	          8.73758167	        -54.84465119	        -30.42214427	        -14.13588802	         -7.79523549	         -9.84911782	          3.78712450	        -10.77113766	        -74.22483459	          0.93349547	         -0.01466038	         75.60560684	         53.28912116	         -9.94631457	          7.75541713	         88.71025082	          0.87953508	         -0.00008714	        106.02132593	         54.13543304	        -28.44419733	          7.78959281	
          1.56589980	         -9.67540193	         -5.92608487	         15.45626459	         18.56957904	          0.96519281	          0.30761788	         84.39638065	        -10.90303258	          2.44032738	        -92.32457164	        -13.90430097	        -24.03509265	         15.66597717	         -1.21566804	        -13.96612059	          8.91329824	        -56.13648474	        -30.61845034	        -13.79897319	         -7.35501582	        -10.05937483	          4.01989179	        -10.71522293	        -73.86130791	          0.87673554	         -0.06924486	         73.90018058	         53.65150840	        -10.16438620	          7.69223376	         88.65705763	          0.73854016	         -0.00247424	        105.78089581	         53.85139659	        -28.23329062	          7.72663956	
          1.56737985	         -9.63763676	         -5.92447595	         15.33085790	         18.58643934	          0.96589239	          0.30795391	         84.13580738	        -10.99857638	          2.21005753	        -90.46222016	        -14.50952239	        -24.15260791	         15.66632960	         -1.24980955	        -13.91593523	          9.02957524	        -57.07331402	        -30.70657871	        -13.61288552	         -7.06398196	        -10.24662183	          4.19414685	        -10.67535623	        -73.56759400	          0.82139258	         -0.14569283	         72.72744304	         53.92249577	        -10.33205432	          7.64715071	         88.56965314	          0.59538929	         -0.00547606	        105.65646153	         53.68410860	        -28.08012556	          7.68103493	
          1.56737985	         -9.63763676	         -5.92447595	         15.33085790	         18.58643934	          0.96589239	          0.30795391	         84.13580738	        -10.99857638	          2.21005753	        -90.46222016	        -14.50952239	        -24.15260791	         15.66632960	         -1.24980955	        -13.91593523	          9.02957524	        -57.07331402	        -30.70657871	        -13.61288552	         -7.06398196	        -10.24662183	          4.19414685	        -10.67535623	        -73.56759400	          0.82139258	         -0.14569283	         72.72744304	         53.92249577	        -10.33205432	          7.64715071	         88.56965314	          0.59538929	         -0.00547606	        105.65646153	         53.68410860	        -28.08012556	          7.68103493	
